<?xml version="1.0" standalone="no"?><!DOCTYPE svg PUBLIC "-//W3C//DTD SVG 1.1//EN" "http://www.w3.org/Graphics/SVG/1.1/DTD/svg11.dtd"><svg class="icon" width="128px" height="128.00px" viewBox="0 0 1024 1024" version="1.1" xmlns="http://www.w3.org/2000/svg"><path fill="#ffffff" d="M247.741935 891.870968h528.51613v-297.290323c0-19.819355 37.987097-28.539871 57.806451-28.539871 19.852387 0 35.939097 16.08671 35.939097 35.939097v359.291871c0 19.852387-16.08671 35.939097-35.939097 35.939097H187.325935c-19.819355 0-35.939097-16.08671-35.939096-35.939097V601.979871c0-19.819355 16.08671-35.939097 35.939096-35.939097 19.819355 0 60.416 8.687484 60.416 28.539871v297.290323zM115.612903 528.516129c-14.03871 14.03871-73.595871 5.086968-87.63458-8.91871a35.939097 35.939097 0 0 1-0.033033-50.869677L485.243871 11.462194a35.939097 35.939097 0 0 1 50.869677 0L993.478194 468.727742a36.005161 36.005161 0 0 1-16.152775 60.184774c-12.387097 3.303226-59.854452 8.654452-68.938322-0.429419L512 132.129032 115.612903 528.516129z" /></svg>